<svg width="601" height="491" opacity="0.25" viewBox="0 0 601 491" fill="none" xmlns="http://www.w3.org/2000/svg">
  <path d="M566.172 292.252C571.35 283.085 575.139 267.103 574.622 256.817C574.152 251.928 571.887 241.468 569.514 233.712C566.97 226.085 565.58 219.27 566.436 218.622C567.121 218.103 566.562 216.654 564.966 215.614C561.514 213.546 564.236 214.294 591.761 223.606C613.13 230.837 630.839 231.1 646.625 224.202C659.132 218.664 680.413 204.794 680.601 201.841C680.789 198.889 650.841 190.289 642.307 190.758C638.125 190.927 625.969 193.016 615.3 195.289C604.369 197.573 592.366 198.797 588.427 198.22C577.838 196.687 583.94 200.12 603.813 206.798C615.332 210.625 623.56 211.886 633.401 211.364C645.332 210.757 646.035 210.974 639.538 212.71C623.778 217.154 592.487 210.694 577.92 199.996C570.195 194.42 564.658 182.13 566.215 174.582C566.989 170.624 567.16 170.495 567.341 174.291C567.705 185.442 584.399 197.525 597.448 196.259C603.711 195.637 651.217 184.384 652.929 183.087C655.154 181.402 647.744 174.463 643.283 173.908C640.832 173.517 632.659 174.462 625.459 175.981C608.193 179.504 603.57 179.446 585.743 174.403L570.99 170.216L570.614 151.581C570.449 141.404 569.59 134.936 568.771 137.055C567.213 141.045 561.763 146.296 558.978 146.532C558.194 146.564 558.797 142.736 560.246 137.892C565.395 120.505 566.432 120.095 532.132 147.008C497.572 173.932 495.617 175.975 492.576 190.454C491.478 195.407 490.074 202.089 489.372 205.431L488.121 211.248L481 216C476.756 217.154 473 222 472 224C471 226 469 231.5 469 231.5L466 240C463.639 252 447.932 256.881 449.5 256.817C451.591 256.732 465.107 254.114 465 256.817C482 253.5 486.54 252.907 492.845 243.449C496.205 238.282 505.753 225.993 514.14 216.082C535.742 190.543 537.597 184.455 519.442 197.83L508.739 205.749L516.063 198.703C520.063 194.737 529.368 183.194 536.439 172.968C549.753 154.269 555.879 148.13 548.52 160.822C546.35 164.713 541.972 171.026 538.675 175.209C532.171 183.694 532.397 185.77 539.542 182.045C548.066 177.65 558.706 167.157 563.281 158.259L568.036 149.6L565.993 158.64C564.914 164.328 561.429 171.463 556.456 178.414C541.116 199.772 539.947 208.9 549.535 233.296C554.477 246.224 554.487 246.592 549.843 238.682C547.111 234.007 544.18 228.36 542.99 226.077C540.122 219.445 541.308 235.593 544.719 250.055C546.361 256.492 546.912 261.132 546.191 260.18C541.972 255.32 537.032 221.41 540.501 220.656C541.627 220.365 541.681 219.013 540.599 217.585C538.706 215.085 538.706 215.085 535.022 221.247C526.988 234.824 525.374 261.147 531.948 273.028C536.69 281.424 558.379 301.526 560.776 299.71C561.803 298.933 564.163 295.647 566.172 292.252ZM547.346 264.55C547.228 263.328 548.022 263.664 549.284 265.33C550.546 266.997 550.654 267.851 549.6 267.526C548.626 266.952 547.545 265.524 547.346 264.55Z" fill="#DDD1C4"/>
  <path d="M523.459 316C525 311.5 525.57 294.718 523.459 290.509C520.538 285.229 519.987 280.589 520.949 273.679C521.776 268.369 522.214 257.922 521.851 250.329C520.663 227.065 522.356 221.475 536.155 201.283C542.803 191.565 548.18 183.371 548 183.133C547.189 182.062 536.099 195.518 526.921 208.651C521.615 216.229 513.445 227.848 508.635 234.301C503.825 240.754 497.601 249.964 495.016 254.731C490.503 262.645 489 273.679 489 278.281C489 281.417 493.371 296.148 494.227 295.5C495.083 294.852 504.472 263.305 508.226 252.968C512.152 242.502 514.548 237.129 513.594 240.849C512.901 244.558 509.66 254.505 506.644 262.971L501.268 278.281L485.32 341.532C485.32 341.532 508.997 330.5 513.594 327.532C518.19 324.564 521.919 320.5 523.459 316ZM506.574 270.704C506.394 270.466 507.042 268.476 507.951 266.476C509.518 262.854 509.78 262.844 508.997 266.434C508.214 270.024 507.295 271.656 506.574 270.704Z" fill="#DDD1C4"/>
  <path d="M605.595 145.131C609.566 132.945 602.119 124.536 586.682 124.426C575.606 124.385 575.814 125.726 582.809 101.884C585.221 93.688 586.787 86.5079 586.246 85.7937C584.533 83.5319 581.21 90.1698 577.195 104.075C571.326 124.068 570.219 128.653 571.256 131.801C571.644 133.38 573.16 138.227 574.315 142.597C579.304 160.922 599.924 162.539 605.595 145.131Z" fill="#DDD1C4"/>
  <path d="M344.926 410.938C358.57 401.937 366.364 385.954 366.44 367.121C366.482 360.132 367.261 351.189 368.258 347.062C370.961 335.493 369.851 335.391 362.445 346.295C358.676 351.987 355.805 357.82 356.098 359.436C356.498 361.64 355.891 361.902 354.383 360.809C351.342 358.478 344.249 367.504 339.988 378.901C338.278 383.915 336.382 387.901 335.695 387.723C335.219 387.505 336.085 383.858 337.717 379.616L340.716 372.091L325.86 382.829C299.076 402.408 299.523 401.265 327.807 377.923C347.754 361.557 355.166 354.293 351.574 354.945C350.306 355.175 348.38 356.587 347.114 358.03C344.424 361.25 330.331 370.18 323.625 372.914C320.773 374.039 325.496 369.995 333.993 363.901C347.557 354.459 350.854 350.978 360.975 335.787C372.835 318.155 376.416 310.221 376.954 299.955C377.028 296.755 378.054 293.989 379.322 293.759C380.59 293.529 380.776 294.557 379.617 296.589C377.221 301.425 377.75 301.936 382.846 299.949C385.486 298.863 390.604 294.596 394.428 290.412L401.576 282.893L395.302 291.619C392.034 296.461 388.368 300.313 387.285 300.358C385.99 300.441 383.695 302.223 381.902 304.37L378.473 308.33L382.615 304.696C389.211 298.946 388.134 302.632 380.592 311.588C373.762 319.657 367.254 330.702 368.893 331.315C370.083 331.858 391.914 321.069 397.746 317.127C404.106 312.483 408.796 304.651 411.025 294.079C413.412 283.174 420.18 269.957 424.905 267.127C426.885 266.009 428.335 264.38 428.202 263.646C428.042 262.764 421.996 265.53 414.447 269.631C407.136 273.841 396.128 279.328 390.056 281.947C383.957 284.419 377.807 287.811 376.568 289.402C374.828 291.842 374.379 291.772 373.819 288.687C372.86 283.397 362.965 274.568 355.008 271.61C349.404 269.592 348.319 268.423 349.981 266.755C351.643 265.088 353.122 264.82 356.135 265.791C373.156 270.595 394.16 270.883 397.005 266.117C397.717 265.229 395.623 260.905 392.473 256.771C389.322 252.638 385.268 244.723 383.833 239.216L380.91 229.123L387.657 235.032C391.519 238.277 395.248 240.788 396.093 240.635C397.149 240.443 397.117 236.655 396.318 232.247C394.878 224.313 395.063 224.127 400.768 223.093C408.797 221.636 415.152 214.565 421.023 201.207C423.444 195.304 425.842 191.682 426.109 193.152C427.093 197.374 434.499 203.315 437.88 202.702C442.951 201.782 440.539 196.908 430.645 188.079C417.39 176.369 417.114 168.831 428.988 142.851C433.621 132.297 439.257 121.259 441.313 118.154C444.924 112.794 444.739 112.98 437.089 120.134C428.12 128.439 429.857 124.785 440.117 113.97C447.765 105.601 444.939 105.659 434.199 113.829C424.014 121.444 422.011 124.842 418.547 139.433L415.686 151.334L411.87 143.527C404.767 129.639 404.107 129.607 400.588 142.69C397.698 153.231 397.809 156.246 401.024 167.956C404.186 179.372 404.296 182.387 401.744 188.769C400.086 192.864 398.506 196.185 398.083 196.262C397.661 196.339 394.973 183.926 392.017 168.831L386.61 141.432L400.57 131.766C408.356 126.56 419.519 119.527 425.458 116.173C431.397 112.82 442.35 105.825 449.528 100.88C459.978 93.5213 463.172 91.8796 465.974 92.8889C470.177 94.403 485.053 112.648 493.265 126.639C501.742 140.884 512.801 151.323 526.232 157.993C542.757 166.074 543.153 165.85 544.257 145.466C544.565 139.946 545.817 130.006 546.995 123.267C548.173 116.527 548.269 109.832 547.368 108.478C543.847 103.501 535.334 99.8854 521.857 97.7771C514.432 96.544 504.469 94.557 500.108 93.3751C495.535 92.2315 487.476 91.1134 481.954 90.7492L472.02 90.123L480.85 94.2883C485.635 96.6073 492.644 101.558 496.613 105.391C503.519 112.182 517.158 133.232 515.496 134.899C515.127 135.269 511.792 131.321 508.006 126.089C497.043 110.17 488.894 102.542 476.441 96.4538L464.465 90.5828L475.046 82.7446C480.983 78.1772 486.337 72.8047 487.31 69.7448L489.231 64.6917L510.478 68.7295C522.237 70.9976 539.417 75.4697 548.51 78.6768C567.172 85.3081 568.495 86.5858 571.533 103.336C572.572 109.066 574.64 113.244 577.126 114.918C579.374 116.483 580.699 118.974 580.173 120.891C579.227 124.098 579.439 124.059 587.041 120.252C599.21 113.947 603.91 112.184 617.034 108.741C634.516 104.053 640.213 98.1627 643.752 80.3715C647.735 60.2231 654.66 45.46 666.818 31.8725C672.619 25.3566 678.712 19.2432 680.323 18.4958C682.514 17.3396 682.752 17.4482 680.774 19.7799C678.454 22.629 678.377 24.6157 679.632 49.5809L680.263 63.8842L678.176 47.5686C677 38.6762 676.43 29.5218 676.691 27.3498C677.896 20.7572 663.367 38.1137 657.521 50.4046C652.755 60.2232 652.652 62.063 654.946 75.9128C656.945 86.9325 659.014 92.3242 662.72 97.1155C665.526 100.552 668.621 103.178 669.466 103.025C670.312 102.871 672.579 99.7284 674.739 95.9978L678.321 89.2774L672.63 81.9628C668.712 77.2098 666.378 71.5626 665.392 66.1262L664.296 57.6745L667.64 67.6914C671.065 78.149 682.606 92.4461 690.14 95.4806C693.921 97.0714 693.999 96.2984 693.266 83.8349C692.594 76.5204 692.818 68.1326 693.368 65.1493C694.13 62.1277 692.709 49.4854 690.391 36.7025C686.286 14.0753 686.206 13.6345 690.874 8.08319C693.59 5.01051 695.065 2.3147 694.589 2.09749C692.183 0.864512 664.802 26.7747 651.327 42.7258C643.627 52.0141 627.539 69.1982 615.696 80.9076L594.04 102.289L593.313 93.4664C592.772 85.6727 593.509 83.718 598.89 78.4925C612.871 65.333 598.697 56.9769 579.11 66.9038C573.699 69.5549 572.193 69.6762 563.075 67.536C557.578 66.1049 548.171 64.776 542.464 64.597C532.107 64.0474 527.482 62.6099 529.539 60.7191C531.386 58.8665 557.488 59.5953 564.387 61.5311C570.598 63.2879 573.398 63.0836 591.462 59.1999C621.067 52.7675 630.963 45.9642 650.127 19.2682C654.319 13.4997 661.069 4.99069 664.997 0.180428C671.8 -8.03471 671.958 -8.36688 667.571 -9.69572C660.83 -11.9637 653.538 -12.4621 646.143 -11.1207C642.34 -10.4309 635.419 -10.086 630.557 -10.4183C617.558 -11.0957 591.356 -7.55717 578.365 -3.37952C560.621 2.26733 544.732 12.1304 526.398 28.9631C506.929 46.7603 498.695 51.8963 483.668 55.6842L472.815 58.4118L484.14 53.4739C500.72 46.2172 515.209 37.0631 522.488 29.0652C532.852 17.6241 547.298 -19.4465 542.933 -23.056C542.192 -23.5287 539.288 -22.6983 536.12 -20.9097C533.164 -19.1594 524.874 -15.531 517.719 -12.8672C501.376 -6.7157 493.669 -2.28242 470.499 14.3649C460.261 21.6856 443 32.4047 432.072 38.3328C417.554 46.1261 411.537 50.2528 410.353 53.3511C407.905 59.1068 410.654 59.8224 428.377 57.6699C459.149 54.0611 477.893 45.5013 496.911 26.42C503.954 19.5272 509.573 14.4104 509.679 14.9981C509.759 15.4389 507.705 19.7573 504.86 24.5228C498.932 35.1591 485.083 47.8395 475.103 51.7745C453.479 60.0979 387.467 65.5458 344.77 62.3636C330.159 61.2198 317.951 60.0952 317.475 59.878C317 59.6608 337.257 55.8347 362.638 51.3826C407.484 43.5515 409.359 43.0596 419.522 37.7256C429.869 32.2064 443.612 18.9383 441.6 16.268C441.018 15.4631 434.862 15.2138 428.152 15.5203L415.631 16.2739L420.458 11.6042C423.281 9.11919 429.029 2.30945 433.194 -3.60597C437.597 -9.41279 444.191 -16.3758 447.859 -19.0141C455.59 -24.5142 454.452 -25.9772 442.274 -25.741C424.019 -25.3134 394.793 -13.1827 373.71 2.9344C366.242 8.69005 364.236 9.66102 365.104 7.22712C365.656 5.45759 366.52 0.596162 367.068 -3.6009C367.51 -8.38568 370.064 -13.5537 374.073 -17.9232C380.983 -25.5506 381.399 -29.2685 375.162 -31.1724C368.448 -33.2934 366.284 -31.9902 364.236 -24.0305C363.027 -19.8654 359.551 -12.5573 356.256 -7.86206C351.802 -1.13534 351.014 1.73935 352.552 5.40623C354.648 10.9449 348.727 25.2225 341.05 32.2302L335.985 36.7913L339.2 31.6552C344.47 23.4145 351.395 8.65143 351.022 6.59441C350.409 3.21502 341.299 5.92984 332.406 12.2476C318.076 22.2833 310.862 37.8576 313.527 52.5506C314.3 56.8116 257.627 33.9496 257.018 36.7913C255.874 42.133 326.5 64.5 332.652 67.7486C341.081 68.4962 350.066 69.9018 352.418 70.8409C356.225 72.5786 356.543 73.128 354.282 79.9122C350.943 90.3825 354.475 118.274 360.007 124.707C362.441 127.3 363.951 129.607 363.317 129.721C362.894 129.798 356.42 128.999 349.444 127.837L336.416 125.799L326.625 131.976C314.696 139.603 299.542 146.298 293.07 146.713C289.61 146.885 291.958 145.397 301.463 141.245C308.722 137.955 318.885 132.621 323.952 129.274C328.993 125.779 333.928 122.911 334.985 122.719C336.041 122.528 339.894 119.704 343.271 116.664C349.101 111.508 349.653 109.739 349.586 100.949C349.445 95.3589 350.172 87.3353 351.143 83.0616C353.031 74.2203 352.422 73.2684 345.478 75.8939C332.989 80.4357 325.318 91.0847 325.26 103.995L325.113 111.61L317.143 100.156C303.984 81.7511 293.408 76.3847 257.018 69.4783L241.849 66.4628L242.782 71.6053C243.848 77.4825 260.862 94.2775 272.074 100.743L279.134 104.774L273.865 97.3825C270.952 93.3578 267.482 87.4614 266.262 84.3439C263.742 77.6682 265.912 80.0063 274.916 93.5495C278.49 98.8199 284.709 105.432 288.703 108.198L296.372 113.181L285.564 111.347C272.298 109.201 260.11 103.368 249.264 94.1048C239.131 85.1675 223.323 78.6256 206.993 76.4277C194.045 74.8304 171.011 76.5804 169.351 79.4614C167.822 81.8634 181.857 102.689 190.853 111.377C195.351 115.722 204.397 122.276 211.139 125.758C223.223 132.217 223.645 132.14 228.316 129.016C234.122 124.928 249.495 123.05 258.401 125.228L264.586 126.838L260.206 130.365C257.752 132.479 254.585 134.268 252.895 134.574C246.978 135.647 251.027 139.921 264.405 146.297C280.665 154.123 296.523 158.531 303.918 157.19C306.876 156.653 316.725 153.197 325.649 149.454C344.737 141.59 365.335 136.033 370.409 137.541C373.396 138.365 373.107 139.176 368.753 142.849C354.717 154.501 221.005 233.087 184.734 250.896C134.868 275.573 97.6569 300.231 67.4525 328.626C54.7906 340.636 45.2961 350.857 46.0632 351.476C48.5758 353.297 68.8823 347.337 85.2238 339.972C112.231 327.637 126.661 314.548 131.02 297.67C133.987 286.356 146.255 275.784 172.123 261.986L194.613 250.015L184.827 259.834C166.337 278.212 155.017 303.637 150.63 336C147.472 360.703 148.082 361.655 162.577 356.142C174.828 351.492 178.231 348.598 190.834 332.653C196.714 325.364 207.499 312.633 214.513 304.379C226.433 290.683 235.211 278.923 238.794 272.202C240.084 269.692 231.854 277.255 195.794 311.872C170.524 336.185 178.092 327.376 217.233 286.888C235.221 268.146 257.564 246.944 266.508 239.706C276.614 231.65 286.057 222.349 290.749 215.731C302.242 199.684 310.364 190.319 317.752 184.123C322.289 180.264 321.288 181.964 314.379 189.591C308.919 195.589 299.349 207.797 293.128 216.817C287.119 225.799 276.943 239.482 270.905 247.103C243.273 281.254 240.292 300.917 255.588 350.35C260.288 365.433 264.984 378.088 265.962 378.669C267.152 379.212 269.027 378.72 270.742 377.347C275.068 373.527 297.004 328.42 304.421 307.952C310.023 291.911 310.547 288.781 308.601 278.055C303.937 252.342 317.56 229.99 348.389 212.257C355.7 208.047 356.941 207.671 357.314 209.728C357.448 210.462 352.54 214.691 346.339 219.003C331.694 229.703 329.347 232.405 325.351 245.271C315.572 275.577 316.527 278.439 333.529 271.105C339.39 268.525 344.75 266.793 345.253 267.158C348.108 268.461 344.522 272.754 337.211 276.963C332.855 279.423 327.341 283.914 324.836 286.948C313.866 299.865 315.093 323.469 327.323 339.159C331.056 344.097 333.995 348.269 333.81 348.454C333.626 348.639 329.878 350.837 325.522 353.296C309.685 362.239 297.796 378.51 294.943 395.266C294.288 398.876 291.207 404.746 288.121 408.19C283.981 413.038 283.218 414.846 285.413 416.117C291.97 419.784 316.404 417.325 326.778 411.953C329.576 410.535 330.501 410.822 330.927 413.173C331.647 417.14 336.929 416.182 344.926 410.938ZM353.653 366.405C353.729 364.419 354.364 365.517 354.951 368.75C355.748 371.944 355.592 373.49 354.719 372.283C354.03 370.89 353.55 368.245 353.653 366.405ZM274.086 336.826C274.533 335.683 275.089 336.341 275.462 338.398C275.835 340.455 275.546 341.266 274.752 340.5C274.143 339.548 273.823 337.785 274.086 336.826ZM272.444 301.308C272.905 291.815 273.5 284.27 273.976 284.487C274.452 284.705 275.21 296.101 275.707 309.67C276.054 328.426 275.717 332.585 274.175 326.49C272.953 322.159 272.195 310.762 272.444 301.308ZM347.33 294.25C348.007 288.36 348.927 285.006 349.273 286.917C350.391 291.874 348.678 311.307 347.193 307.934C346.689 306.356 346.679 300.287 347.33 294.25ZM292.599 299.321C294.458 289.119 296.896 277.295 297.84 272.874L299.677 264.953L300.351 273.481C300.892 281.275 292.287 319.259 290.172 318.428C289.696 318.211 290.977 309.632 292.599 299.321ZM263.159 276.585C263.579 275.295 264.293 275.62 264.586 277.237C265.091 278.815 264.617 279.811 263.876 279.338C263.162 279.013 262.711 277.729 263.159 276.585ZM267.786 262.39C270.209 257.702 277.484 247.276 284.102 239.246C290.509 231.255 299.815 218.791 304.85 211.656C314.365 197.94 322.143 187.879 320.089 192.198C319.457 193.526 314.872 200.732 309.679 208.2C304.698 215.629 299.852 225.007 298.854 229.134C297.436 234.551 296.751 235.586 296.06 232.98C295.209 229.492 294.84 229.862 288.141 237.451C284.371 241.929 277.438 251.837 273.144 259.446C264.687 274.183 260.332 276.642 267.786 262.39ZM361.523 214.883C368.17 174.522 368.169 174.522 373.596 164.736C379.154 154.47 381.265 152.873 378.187 161.171C376.819 164.455 375.304 175.353 374.527 185.51C373.962 195.629 371.292 210.986 368.901 219.464C363.252 238.852 362.298 237.204 367.392 217.157C371.016 203.448 372.97 186.551 371.588 181.339C371.242 179.428 361.124 229.525 359.453 241.969C359.245 244.435 358.428 245.949 357.846 245.144C357.237 244.192 358.933 230.681 361.523 214.883ZM322.412 207.408C320.794 203.3 338.37 175.071 347.419 167.207C357.049 158.935 370.588 150.56 370.988 152.764C371.148 153.646 363.685 161.829 354.4 170.798C336.779 187.956 330.715 195.43 331.461 199.544C332.927 207.625 325.17 214.192 322.412 207.408ZM360.302 178.074C361.248 174.867 362.328 172.395 362.803 172.612C363.279 172.829 362.941 175.774 362.206 178.943C361.471 182.111 360.392 184.584 359.705 184.405C359.202 184.041 359.356 181.281 360.302 178.074ZM366.197 163.649C368.07 161.944 368.308 162.052 367.414 164.339C367.046 165.924 365.912 166.888 365.198 166.562C364.484 166.237 364.905 164.946 366.197 163.649ZM509.54 110.483C506.576 107.378 504.086 103.277 503.713 101.22C503.391 98.243 504.105 98.5688 507.071 102.887C509.348 105.813 510.988 107.64 511.04 106.72C511.011 105.36 521.97 118.852 522.263 120.468C522.556 122.084 514.436 115.817 509.54 110.483ZM628.322 79.528C633.355 71.1787 634.914 71.3511 630.33 79.7708C628.381 83.4631 626.061 86.3122 625.558 85.9481C625.082 85.7309 626.293 82.7795 628.322 79.528ZM385.026 125.48C390.432 119.188 391.195 117.38 388.365 115.01C384.158 111.068 360.952 70.9625 362.642 70.6559C364.755 70.2726 372.381 81.0305 376.092 89.4631C377.393 93.0213 380.967 98.2917 383.878 101.103C388.191 105.632 391.231 106.75 403.756 108.424L418.528 110.449L401.845 119.546C382.154 130.099 380.121 130.923 385.026 125.48ZM568.122 84.5288C567.775 82.6187 574.569 85.1805 577.982 88.3555C580.601 90.7639 580.152 90.6937 574.521 88.5279C571.19 87.0075 568.255 85.2634 568.122 84.5288ZM558.225 74.4863C550.217 72.4483 543.768 70.5828 543.688 70.142C543.528 69.2604 564.802 73.4451 571.516 75.5661C581.48 78.7668 572.629 78.0959 558.225 74.4863ZM426.307 101.602C439.801 97.7882 464.057 83.5238 468.749 76.9056C470.858 74.0949 471.937 71.6226 471.224 71.2968C470.51 70.971 466.549 71.993 462.06 73.7178C451.262 77.953 440.671 79.7223 429.415 79.0322C414.381 77.965 402.397 84.0847 403.387 91.9486L403.868 95.8071L401.512 92.4405C400.082 90.5751 398.068 86.691 396.664 83.7588C395.205 80.5327 391.025 76.738 385.711 73.9079C375.584 68.6119 375.795 68.5736 406.729 67.0602C418.643 66.5685 437.61 65.2529 448.756 64.1416C459.93 63.1772 472.478 62.5705 476.494 63.0561C482.704 63.5992 483.682 64.1806 482.233 67.0233C476.729 77.583 439.911 100.803 424.434 103.307L415.745 104.732L426.307 101.602ZM359.949 88.2937C359.519 83.5153 360.423 87.2972 362.102 96.5537C363.781 105.81 364.262 109.669 363.014 105.191C361.738 100.566 360.352 92.9252 359.949 88.2937ZM284.862 118.304C273.444 115.519 263.084 112.542 262.052 111.666C261.02 110.791 266.2 111.673 273.547 113.679C280.895 115.685 291.36 118.036 296.513 118.771C305.524 120.323 310.944 122.527 307.352 123.179C306.295 123.37 296.306 121.237 284.862 118.304ZM579.409 55.3156C579.936 54.6129 581.838 54.268 583.819 54.3638C586.039 54.5683 586.831 54.1211 585.588 53.2843C584.794 52.5177 587.088 49.5216 591.098 46.3659C595.136 43.3571 606.322 34.0433 616.137 25.5855C633.55 10.8929 659.938 -8.46295 661.63 -7.55579C662.106 -7.33858 655.8 -2.4006 647.672 3.3231C639.544 9.04679 627.327 18.6992 620.547 24.6337C613.767 30.5683 603.319 39.1411 597.144 43.5999C586.536 51.2911 583.399 55.6542 592.24 50.2564C594.616 48.9149 596.464 48.2761 596.518 48.57C596.598 49.0108 594.302 50.793 591.135 52.5817C585.618 55.8587 578.092 57.6792 579.409 55.3156ZM551.801 54.7082C547.177 54.4845 547.995 54.1843 556.129 52.1019C565.53 49.7895 569.52 50.1282 563.897 52.8175C560.703 54.4592 558.352 54.7339 551.801 54.7082ZM239.261 100.32L224.004 92.009L240.871 99.573C250.151 103.809 257.845 107.725 258.163 108.274C258.536 110.331 254.544 108.779 239.261 100.32ZM231.818 105.009C226.241 103.137 214.714 97.3366 205.723 92.2897L189.857 83.0265L205.879 90.7438C214.948 95.0177 228.51 101.208 236.573 104.754C251.272 111.193 249.74 111.168 231.818 105.009ZM512.617 51.6474C513.171 51.0917 515.046 50.5998 516.605 50.7723C518.375 50.9065 517.821 51.4623 515.497 51.8839C513.199 52.4524 511.852 52.2415 512.617 51.6474ZM535.535 43.241C544.485 39.6446 555.415 34.9303 559.797 32.6178C569.194 27.8779 590.015 12.7191 593.759 8.09405C596.026 4.95108 596.026 4.95108 591.408 8.36869C588.69 10.2276 583.807 13.3897 580.667 15.3253L574.728 18.679L579.477 14.7822C595.044 1.94221 622.001 -8.25927 634.421 -5.95926C641.847 -4.72619 638.363 -2.27317 621.702 3.32898C612.249 6.56124 601.637 11.8249 589.101 19.7142C578.914 26.115 567.643 32.5605 564.449 34.2022C553.388 39.3956 531.922 47.3869 525.583 48.5366C521.569 49.2648 525.132 47.2526 535.535 43.241ZM370.602 42.3497C380.557 39.4816 404.505 30.7366 408.491 28.6477C412.266 26.5972 412.292 26.7441 409.074 29.4527C405.643 32.1995 405.643 32.1995 409.553 32.0974C416.528 32.0464 395.667 38.562 380.243 41.3598C371.976 42.7075 367.724 43.3271 370.602 42.3497ZM328.424 50.4556C328.371 50.1617 334.39 47.2488 341.888 44.0676C349.597 40.8481 360.34 35.1053 365.961 31.2022C371.582 27.2991 377.363 24.2776 378.737 24.6353C380.112 24.9931 380.508 24.7695 379.714 24.0029C378.709 23.2746 381.214 20.2403 385.224 17.0846C389.024 13.9672 397.968 6.7295 404.986 0.903564C412.242 -4.81376 418.021 -9.04906 418.075 -8.7552C418.235 -7.87362 396.601 11.2268 387.076 18.8733L381.351 23.4025L388.293 19.5633C392.067 17.5127 399.061 12.7536 403.837 9.00382L412.412 2.13663L404.946 9.10605C391.493 21.5628 357.392 41.7107 340.492 47.2042C328.769 51.1519 328.558 51.1902 328.424 50.4556ZM321.808 42.8535C322.778 38.5797 330.763 26.0526 332.164 26.5573C333.116 26.9917 322.816 46.0093 321.549 46.2392C321.126 46.3159 321.282 44.7699 321.808 42.8535ZM323.654 24.1551C323.6 23.8613 325.816 21.6382 328.612 19.0063L333.889 14.4069L329.564 19.4407C325.371 23.9955 323.867 25.3306 323.654 24.1551Z" fill="#DDD1C4"/>
  <path d="M80.7922 310.727C89.3712 306.287 109.558 291.243 116.151 284.28L121.268 278.799L106.127 277.144C92.757 275.624 88.4513 275.949 69.4354 279.399L47.884 283.308L24.1284 296.723C10.825 303.992 0.214928 310.47 0.294883 310.911C0.374837 311.351 5.07841 312.016 10.8118 312.342C16.7298 312.482 29.4128 313.824 39.2425 315.076C58.664 317.472 69.5997 316.399 80.7922 310.727ZM53.3835 302.799C55.1785 301.866 64.3666 298.378 73.846 295.293C83.5367 292.169 97.1353 287.73 104.106 285.251C111.314 282.881 117.124 281.22 117.177 281.514C117.444 282.983 104.401 288.081 80.4512 295.612C50.534 305.137 49.4775 305.328 53.3835 302.799Z" fill="#DDD1C4"/>
  <path d="M141.746 264.158C155.658 257.84 187.595 238.995 190.258 235.629C191.524 234.185 191.417 233.597 190.441 234.23C187.511 236.127 146.011 238.343 123.449 237.883C96.0516 237.237 82.6072 238.917 67.9274 244.615C55.9411 249.521 46.8615 254.81 47.2346 256.867C47.3679 257.602 50.2745 257.985 53.5505 257.998C57.011 257.825 67.054 260.253 75.9091 263.352C103.611 272.896 122.21 273.165 141.746 264.158ZM114.811 255.233C106.04 255.003 99.1964 254.575 99.5657 254.204C100.674 253.093 131.505 253.419 136.077 254.562C140.649 255.706 137.373 255.693 114.811 255.233Z" fill="#DDD1C4"/>
  <path d="M212.586 221.562C219.583 219.23 229.298 215.04 234.287 212.466C241.89 208.658 243.34 207.029 242.781 203.944C242.274 201.152 240.053 199.734 235.085 198.814C214.974 195.025 183.155 188.049 183.022 187.314C182.755 185.845 192.532 186.803 225.668 191.416C243.795 193.895 260.23 195.467 262.078 194.828C264.772 194.036 260.885 191.858 248.883 187.053C230.088 179.687 223.768 176.129 217.838 168.706C213.683 163.844 213.683 163.844 217.915 166.719C226.193 172.654 250.619 182.186 262.034 183.757C275.273 185.757 285.996 183.509 296.526 176.59C306.079 170.305 303.618 167.564 283.979 161.565C273.327 158.186 262.171 153.228 254.977 148.462C246.806 143.115 242.073 141.09 238.693 141.703C228.974 143.466 213.079 149.688 206.535 154.517L199.568 159.423L196.921 155.654C188.688 145.158 177.427 140.827 150.29 138.009C133.379 136.22 112.193 137.331 110.507 140.065C109.005 142.614 130.765 169.931 141.584 179.047C142.087 179.411 136.173 181.698 128.515 183.998C111.166 189.421 89.5484 201.386 77.3871 212.546L68.022 221.074L77.5567 219.496C90.6565 217.12 112.661 215.708 127.773 216.003C137.627 216.188 144.234 217.721 156.923 222.704C177.596 230.792 185.864 230.658 212.586 221.562ZM157.919 200.518C150.786 200.901 142.782 201.291 139.771 201.533C136.733 201.629 140.747 200.901 148.407 199.815C156.278 198.691 166.026 198.289 170.069 198.921C174.296 199.369 176.12 199.797 174.165 199.848C171.972 199.79 164.84 200.173 157.919 200.518ZM197.696 177.975C184.955 173.912 167.854 168.667 159.37 166.411C151.098 164.118 142.93 161.198 140.946 159.889C137.535 157.927 137.535 157.927 141.949 159.403C144.513 160.304 155.27 163.057 165.974 165.517C184.183 169.651 196.262 173.682 218.177 182.607C231.845 188.171 224.339 186.497 197.696 177.975Z" fill="#DDD1C4"/>
  <path d="M510 368.523C508.497 371.211 505.078 383.617 507.225 387.5C508.514 389.591 512.5 383.5 515 381C516.5 378.827 520 375 524.5 372.257C529 368.523 532.779 368.673 542.871 368.673C548.884 368.673 557.473 368.225 562.198 367.628L570.787 366.433L564.345 368.523C560.909 369.718 553.393 371.809 547.81 373.153C533.638 376.587 517.747 388.235 507.225 402.869C498.85 414.666 496.918 420.191 501.213 420.191C502.501 420.191 510.446 415.562 519.036 410.036C535.141 399.285 547.81 392.565 549.528 393.76C550.172 394.058 545.878 398.837 540.08 404.213C521.183 421.535 514.097 434.676 508.728 462.002C506.796 471.41 504.219 481.564 503.145 484.402C500.568 490.673 500.568 490.375 502.93 490.375C504.004 490.375 507.655 484.85 510.661 478.279C517.103 464.989 533.852 439.603 532.135 445.576C531.49 447.667 529.558 453.939 527.84 459.613C524.404 470.514 525.048 474.695 529.128 466.632C531.49 462.152 531.705 462.002 535.356 464.242C539.006 466.632 539.436 466.482 542.442 462.45C548.454 454.387 552.534 441.993 552.749 430.793C552.964 424.521 553.823 417.802 554.682 415.711C555.97 413.322 556.185 414.815 555.326 420.191C554.467 428.254 561.339 458.269 564.774 460.659C565.848 461.256 566.707 452.595 566.922 441.395C567.351 412.276 575.726 386.144 587.966 376.139C589.899 374.497 589.469 375.691 586.677 378.976C580.021 387.04 578.088 395.402 580.665 406.751C582.812 417.055 590.543 433.63 593.334 433.63C594.193 433.63 596.77 429.449 598.917 424.223C602.139 417.055 602.997 409.29 603.427 388.981C603.642 373.003 604.715 362.401 606.004 361.505C607.292 360.609 608.366 359.116 608.366 358.369C608.366 357.473 605.145 359.415 601.494 362.7C597.629 365.985 594.623 369.121 595.052 369.867C595.267 370.614 594.623 370.763 593.764 370.315C592.69 369.867 590.113 370.763 588.181 372.257C586.248 373.75 578.947 376.736 572.29 378.827C552.32 384.949 548.24 384.949 564.345 378.827C573.364 375.393 585.604 368.822 595.052 362.252L610.513 351.5H602.568C598.059 351.5 586.892 352.545 577.659 353.74C555.755 356.727 560.909 354.487 564.345 351.5C566.707 349.559 556.942 346 550.5 346C549.5 346 545 346 542.5 346.5C540 347 537.08 348.059 533 350C529.334 351.744 525.5 352.5 519 357.5C514 361.5 510.859 367.03 510 368.523ZM592.046 391.371C591.402 395.402 589.684 399.584 588.61 400.778C586.677 403.018 587.107 400.33 590.328 388.832C592.261 381.664 593.764 383.755 592.046 391.371ZM564.989 400.032C562.412 403.615 560.05 406.453 559.406 406.154C558.547 405.407 567.136 393.312 568.64 393.312C569.284 393.312 567.566 396.298 564.989 400.032ZM555.326 401.525C554.682 402.869 553.608 403.615 553.179 403.167C552.534 402.719 552.749 401.823 553.608 400.928C555.541 398.538 556.829 398.986 555.326 401.525ZM539.221 422.729C533.208 430.793 527.41 437.961 526.122 438.857C523.76 440.649 535.785 423.625 543.301 414.516C552.964 403.167 550.602 407.946 539.221 422.729ZM545.878 434.377C543.516 440.35 542.442 442.291 543.086 438.857C544.16 432.436 548.24 422.729 549.313 423.476C549.743 423.775 548.025 428.553 545.878 434.377Z" fill="#DDD1C4"/>
  <path d="M235.666 -0.676483C233.922 2.62438 233.767 6.59567 235.05 10.1442C236.743 14.7542 238.552 16.3857 246.527 20.5986C253.362 24.2097 256.109 24.9856 256.807 23.6652C257.784 21.8167 250.398 9.13312 242.587 -0.904678L238.456 -5.95787L235.666 -0.676483Z" fill="#DDD1C4"/>
  <path d="M210.592 -15.2744C204.822 -13.0872 213.675 8.30973 222.409 12.9239L226.966 15.3312L226.265 5.16555C225.769 -0.331826 224.963 -6.16185 224.312 -7.68793C223.011 -10.7401 213.277 -16.2201 210.592 -15.2744Z" fill="#DDD1C4"/>
  <path d="M187.959 -17.942C183.847 -15.2164 181.049 -8.08141 182.502 -3.93611C184.005 0.573563 193.41 6.21737 210.145 12.6944C224.083 18.0312 219.011 18.898 204.364 13.5244C178.887 4.28688 167.68 3.43318 155.993 9.92533C151.831 12.2866 149.495 12.5721 149.104 11.0143C148.763 9.82087 150.588 7.74517 153.153 6.56711C159.151 3.48736 159.291 3.22329 154.354 0.615307C146.31 -3.46556 131.268 -5.33258 129.663 -2.29579C128.059 0.741005 129.249 1.70722 134.751 1.40532C136.948 1.38385 141.563 2.30199 144.81 3.5108L150.925 5.7278L144.062 4.46677C135.662 2.89968 130.26 3.93033 130.264 7.14114C130.368 11.0807 150.339 33.9598 152.954 33.1461C154.202 32.6231 157.093 28.0704 159.624 22.8208L163.867 13.4095L173.066 14.385C178.08 15.0073 183.214 15.862 184.164 16.3635C185.233 17.0974 184.195 17.2243 182.067 17.1138C176.085 16.4863 174.542 21.2447 178.952 25.7697C184.671 31.4933 188.926 31.7144 196.66 27.1874C204.794 22.3646 206.851 22.6072 200.585 27.5723C198.121 29.4791 196.606 31.8875 197.086 32.8168C198.648 35.8373 210.927 32.3604 212.95 28.5314C214.624 25.3626 216.372 25.2726 224.564 27.2357C234.293 29.505 236.413 31.4691 229.612 31.9297C227.675 31.9194 223.273 33.816 219.7 35.9817C212.206 40.9734 210.605 47.221 216.301 50.2303C223.326 53.9416 228.449 53.4391 235.374 48.1465C239.295 45.3206 243.337 42.727 244.635 42.5683C246.003 42.2777 248.297 39.7741 249.762 37.0014L252.552 31.72L239.412 25.7917C217 15.809 213.071 12.2133 192.915 -15.8305C190.644 -18.8877 189.815 -19.1569 187.959 -17.942Z" fill="#DDD1C4"/>
</svg>
