<svg width="257" height="174" opacity="0.25" viewBox="0 0 257 174" fill="none" xmlns="http://www.w3.org/2000/svg">
  <path d="M168.689 5.32179C129.822 14.4308 105.987 28.4675 92.4582 50.12C85.5866 60.8716 81.2919 64.0075 86.0161 54.5999C89.4518 47.8801 93.1024 21.7478 90.955 20.2545C87.5192 17.8653 71.414 32.2007 60.8919 46.9841C54.8793 55.0478 48.2225 62.8129 45.8604 64.4555C43.2836 65.9487 37.271 72.8178 32.332 79.6869C27.3931 86.7053 22.8837 92.081 22.4542 91.6331C22.0247 91.3344 23.0984 88.9452 24.8163 86.4066C28.8963 81.0308 29.111 78.4922 25.6752 76.103C23.7426 74.7591 22.0247 76.2523 18.5889 82.3748C16.0121 86.8546 10.8584 92.977 6.99318 96.1129C1.1953 101.041 -2.02574 108.656 1.41004 108.656C2.05425 108.656 7.85212 105.969 14.2942 102.683C20.5216 99.3981 34.6941 92.977 45.8604 88.3479C56.812 83.7187 72.7024 76.4017 80.8624 71.9218C89.2371 67.5913 108.349 59.229 123.81 53.2559C171.696 35.038 185.439 26.8249 195.961 10.3989C203.906 -2.29391 202.618 -2.59257 168.689 5.32179ZM122.736 37.7258C122.736 38.1738 118.226 41.6084 112.643 45.6402C102.765 52.5093 104.913 49.8214 116.079 41.0111C121.448 36.9792 122.736 36.2326 122.736 37.7258ZM72.273 60.125C71.6287 64.7541 70.3403 68.338 69.9109 67.89C69.2666 67.5913 69.4814 63.4102 70.3403 58.781C71.1993 54.1519 72.273 50.7173 72.9172 51.016C73.3466 51.464 73.1319 55.4958 72.273 60.125ZM101.262 55.4958C101.262 55.7945 99.5444 56.9891 97.6118 58.0344C94.176 59.9756 93.9613 59.8263 96.7529 57.4371C99.5444 55.0478 101.262 54.3012 101.262 55.4958Z" fill="#DDD1C4"/>
  <path d="M195.747 37.8757C175.991 41.4596 158.812 46.0887 144.854 51.6138C131.111 57.139 128.319 59.2296 135.191 59.5282C137.124 59.6775 132.829 60.5735 125.528 61.7681C112.214 63.7094 87.5196 70.2798 82.3659 73.2663C80.2186 74.461 80.8628 75.6556 85.3722 78.9408C88.5933 81.33 90.7406 83.7193 89.8817 84.1672C89.2375 84.6152 80.8628 86.4072 71.1997 87.9004C51.6587 91.0363 45.8608 92.9776 27.1787 101.788C11.0735 109.404 16.0125 110.897 33.4061 103.58C48.6524 97.1587 61.7513 95.2175 85.8017 95.3668L104.484 95.6655L83.0101 96.7107C58.9597 97.9054 48.8671 99.6973 34.9092 104.774L25.4609 108.209L38.5598 109.254C45.8608 109.852 58.745 111.942 67.3344 114.033C89.0227 119.259 109.852 122.096 125.528 122.096C145.928 122.096 150.867 126.278 133.903 128.816C127.246 129.712 126.816 129.563 128.105 126.726C128.964 124.934 128.534 123.59 127.246 123.59C120.589 123.59 99.9743 130.608 93.7469 134.939L86.4459 140.016L86.8754 134.64C87.3049 127.92 83.4396 126.427 78.7154 131.504C75.9238 134.491 75.4944 138.821 75.9238 154.351L76.5681 173.614L84.9428 165.401C89.667 160.922 99.7596 152.709 107.275 147.183C118.656 139.12 122.092 137.477 125.098 138.522C127.246 139.418 136.479 139.717 145.713 139.269C159.456 138.821 160.745 138.821 152.799 140.016C147.431 140.762 139.486 141.36 135.191 141.36C126.387 141.509 124.454 144.048 130.252 147.482C133.044 149.125 137.983 148.975 157.738 146.885C171.052 145.541 185.225 144.496 189.305 144.496C203.262 144.496 202.618 142.554 186.513 135.536C163.751 125.979 152.799 119.707 146.787 113.435C143.78 110.449 139.915 107.014 138.197 106.118C132.185 102.684 136.909 102.684 149.793 105.82C171.481 111.196 221.515 111.643 221.515 106.417C221.515 105.372 217.005 101.639 211.422 98.204C185.225 82.0767 154.947 71.4744 131.755 70.1305C124.239 69.6825 119.086 68.7865 119.945 68.1892C124.239 65.2027 157.094 63.56 177.494 65.2027C200.9 67.1439 221.515 67.2932 221.515 65.6506C221.515 64.008 211.422 60.1255 201.544 57.8856C197.035 56.9896 193.599 55.795 194.243 55.4964C194.673 55.1977 202.618 53.5551 212.067 51.9125C231.178 48.478 249.001 42.9529 254.799 38.473C258.664 35.4865 258.664 35.4865 233.111 35.6358C218.294 35.6358 202.618 36.5318 195.747 37.8757ZM192.955 46.8354C192.311 47.2834 190.378 47.4327 188.875 46.9847C187.157 46.5367 187.801 46.0887 190.163 46.0887C192.526 45.9394 193.814 46.3874 192.955 46.8354ZM180.715 48.926C177.709 49.5233 173.414 50.1206 171.052 50.1206L166.757 50.2699L171.052 48.926C173.414 48.1793 177.709 47.7313 180.715 47.7313H186.083L180.715 48.926ZM150.652 57.8856C143.351 59.5282 137.768 59.5282 143.136 57.8856C145.498 57.139 149.364 56.691 151.726 56.691C155.161 56.691 154.947 56.9896 150.652 57.8856ZM140.989 86.1085C143.351 86.7058 137.124 87.0045 127.031 86.7058C103.41 85.8098 100.189 85.0632 120.589 84.9139C129.393 84.9139 138.627 85.5112 140.989 86.1085Z" fill="#DDD1C4"/>
</svg>
